<svg xmlns="http://www.w3.org/2000/svg" width="48" height="48"><path d="M24.929 9.53c-.584-1.009-.494-2.46.236-3.842.47-.887 1.893-2.237 2.831-2.685.894-.427 2.021-.584 2.854-.397l.686.154L37.8 9.248c4.495 4.657 6.35 6.65 6.572 7.06.347.64.417 1.808.156 2.608-.221.678-.83 1.733-1.34 2.325-.298.345-.692.649-1.362 1.051-.792.475-1.12.594-2.049.742-1.885.3-1.307.756-8.443-6.664-3.379-3.512-6.26-6.59-6.405-6.84zM11.16 37.1l6.836-6.533.837.035c2.57.106 5.326-2.179 5.869-4.865.598-2.96-1.89-4.55-4.91-3.14-1.126.526-2.289 1.6-2.968 2.745-.498.838-.837 2.194-.698 2.788l.087.37-6.825 6.523c-3.755 3.588-6.84 6.508-6.859 6.489-.018-.02.194-.792.471-1.717.277-.926.555-1.873.617-2.104.11-.41.738-2.578 1.408-4.862a276.101 276.101 0 0 0 1.132-3.908c.062-.232.289-1.013.504-1.736.215-.724.447-1.53.514-1.79.256-.989.744-2.323 1.095-2.995.75-1.43 1.216-2.036 2.578-3.34 1.165-1.117 1.423-1.317 2.661-2.067a78.121 78.121 0 0 1 1.844-1.089c.26-.143 1.148-.67 1.973-1.17.825-.5 2.19-1.326 3.033-1.834l1.534-.925 6.5 6.797 6.5 6.797-.197.28c-.207.297-3.42 5.133-4.627 6.964-1.5 2.276-1.734 2.58-2.717 3.517-2.04 1.945-3.566 2.655-7.844 3.651-.845.197-2.655.631-4.106.986-.873.213-1.928.467-2.345.564-.417.098-1.195.287-1.73.42-.533.134-1.135.281-1.336.327-.2.046-1.559.37-3.017.72l-2.65.636z" style="fill:#c9c9c9;stroke:#000;stroke-width:.0562148"/></svg>