<svg xmlns="http://www.w3.org/2000/svg" width="48" height="48">viewBox=&quot;0 0 48 48&quot;<path fill="#fff" fill-rule="evenodd" d="M24.02 0C10.737 0 0 11 0 24.608c0 10.878 6.88 20.086 16.424 23.345 1.193.245 1.63-.53 1.63-1.18 0-.571-.039-2.527-.039-4.564-6.682 1.467-8.073-2.934-8.073-2.934-1.074-2.852-2.665-3.585-2.665-3.585-2.187-1.507.16-1.507.16-1.507 2.425.163 3.698 2.526 3.698 2.526 2.147 3.748 5.607 2.689 7 2.037.198-1.59.834-2.69 1.51-3.3-5.329-.57-10.936-2.69-10.936-12.142 0-2.689.954-4.889 2.466-6.6-.239-.61-1.074-3.137.239-6.519 0 0 2.028-.652 6.6 2.526a23.094 23.485 0 0 1 6.006-.815c2.028 0 4.095.286 6.005.815 4.573-3.178 6.601-2.526 6.601-2.526 1.313 3.382.477 5.908.239 6.52 1.55 1.71 2.465 3.91 2.465 6.6 0 9.452-5.607 11.53-10.976 12.14.876.775 1.63 2.241 1.63 4.564 0 3.3-.039 5.948-.039 6.763 0 .652.438 1.426 1.63 1.182C41.12 44.694 48 35.486 48 24.608 48.04 11 37.262 0 24.02 0Z" clip-rule="evenodd" style="stroke-width:.495814"/></svg>