<svg xmlns="http://www.w3.org/2000/svg" width="48" height="48" viewBox="0 0 48 48">
  <path d="M7.434 47.893c-.354-.106-.952-.676-1.199-1.144-.161-.304-.174-1.085-.2-11.666-.014-6.237-.052-11.34-.084-11.34-.077 0-.554.414-1.261 1.097-.76.734-.97.838-1.696.839-1.013 0-1.196-.076-1.913-.806C.273 24.05 0 23.53 0 22.811c0-.868.243-1.23 1.848-2.754a3781.54 3781.54 0 0 1 9.247-8.748A450.811 450.811 0 0 0 14.44 8.13c.326-.319.925-.888 1.331-1.264.407-.376.754-.724.773-.774.018-.05.284-.301.591-.559.531-.445.897-.79 3.744-3.539C22.529.404 22.98.092 23.743.021c1.121-.105 1.582.142 3.365 1.81.461.43 1.186 1.087 1.61 1.459.425.371 1.09.97 1.479 1.332a112.655 112.655 0 0 0 2.922 2.634c.405.35 1.026.92 1.38 1.265.354.346.887.828 1.184 1.07.298.243.63.541.74.663.109.122.956.902 1.883 1.733.927.831 2.876 2.59 4.331 3.907a295.548 295.548 0 0 0 3.293 2.95c.95.814 1.783 1.719 1.94 2.106.196.487.167 1.336-.063 1.862-.239.544-1.483 1.842-2.008 2.095a2.998 2.998 0 0 1-.74.232c-.319.043-.42-.01-.988-.521-.349-.313-.67-.57-.713-.57-.043 0-.091 4.989-.106 11.086l-.027 11.085-.234.537c-.272.62-.652.99-1.173 1.14-.23.066-2.218.105-5.345.104-4.68-.002-5.003-.013-5.39-.196-.517-.242-.97-.872-1.109-1.544-.07-.337-.106-3.129-.106-8.252v-7.742H19.025l-.002 7.977c-.002 7.545-.012 7.998-.185 8.392-.24.547-.838 1.137-1.281 1.265-.446.128-9.695.122-10.123-.007z" style="fill:#c9c9c9;fill-opacity:1;stroke-width:.10024"/>
</svg>