<svg xmlns="http://www.w3.org/2000/svg" xml:space="preserve" width="48" height="48" viewBox="0 0 1.7 1.7"><g style="fill:#e6e6e6"><path d="M16.825 12.063H4.421a.553.553 0 0 0-.556.555c0 .308.247.556.556.556h12.403a.556.556 0 1 0 .001-1.111z" style="fill:#e6e6e6" transform="matrix(.05993 0 0 .07247 0 -.178)"/><path d="M19.659 20.761a14.11 14.11 0 0 1-.216-.41H2.202V4.315h20.966v13.254c.004.002.007.002.01.002a1.87 1.87 0 0 1 1.021-.313c.25 0 .595.057.967.275.119-.018.253-.029.395-.029a2.29 2.29 0 0 1 1.426.5V4.293a1.83 1.83 0 0 0-1.832-1.83H1.831A1.83 1.83 0 0 0 0 4.293v16.082a1.83 1.83 0 0 0 1.831 1.83h15.415a1.332 1.332 0 0 1 .035-.465c.13-.504.627-1.092 1.595-1.092.244.001.506.039.783.113z" style="fill:#e6e6e6" transform="matrix(.05993 0 0 .07247 0 -.178)"/><path d="M7.97 10.235a.208.208 0 0 0 .208-.209V6.138a.21.21 0 0 0-.208-.208H4.364a.21.21 0 0 0-.208.208v3.888a.21.21 0 0 0 .208.209zM16.825 14.364H4.421a.555.555 0 1 0 0 1.112h12.403a.557.557 0 0 0 .001-1.112zM16.825 16.862H4.421a.554.554 0 0 0-.556.557c0 .307.247.557.556.557h12.403a.557.557 0 0 0 .001-1.114z" style="fill:#e6e6e6" transform="matrix(.05993 0 0 .07247 0 -.178)"/><path d="M28.19 23.362c-.172-1.971-.922-3.104-1.393-4.068-.586-1.207-1.854-.689-1.854-.689-.924-.889-1.604.166-1.604.166-1.035-.832-1.62.402-1.62.402-.139.027-2.094-3.141-2.151-3.24-.506-.863-1.576-.426-.985.613 1.467 2.584 1.52 3.037 2.088 3.994.246.414 1.456 2.408.899 2.523-.498.104-1.104-.996-1.99-1.293-1.397-.467-1.629.424-1.073.73.162.09.931.402 1.508 1.482.131.248.972.428 1.243.59 1.771 1.055 1.992.848 2.7.857.769.012.891.438.891.438l3.481-1.738c.001.003-.125-.571-.14-.767z" style="fill:#b3b3b3;stroke:#000;stroke-width:.070825;stroke-dasharray:none;stroke-opacity:1" transform="matrix(.05993 0 0 .07247 0 -.178)"/></g></svg>